<?xml version="1.0" standalone="no"?>
<!DOCTYPE svg PUBLIC "-//W3C//DTD SVG 20010904//EN"
 "http://www.w3.org/TR/2001/REC-SVG-20010904/DTD/svg10.dtd">
<svg version="1.0" xmlns="http://www.w3.org/2000/svg"
 width="512.000000pt" height="512.000000pt" viewBox="0 0 512.000000 512.000000"
 preserveAspectRatio="xMidYMid meet">

<g transform="translate(0.000000,512.000000) scale(0.100000,-0.100000)"
fill="#808080" stroke="none">
<path d="M2325 4950 c-215 -24 -434 -74 -605 -137 -873 -323 -1478 -1068
-1616 -1988 -25 -165 -25 -513 -1 -680 66 -449 233 -840 515 -1205 85 -109
292 -317 402 -401 676 -524 1522 -673 2321 -409 366 120 691 322 969 600 959
958 972 2498 30 3474 -385 399 -874 648 -1435 732 -120 18 -468 26 -580 14z
m380 -710 c570 -66 1057 -408 1311 -922 l38 -78 164 0 c90 0 171 -4 181 -10
29 -15 45 -64 31 -92 -38 -72 -537 -847 -561 -870 -37 -35 -61 -35 -98 0 -16
15 -151 217 -300 449 -291 453 -296 462 -245 502 24 19 40 21 175 21 82 0 149
3 149 6 0 14 -70 105 -134 172 -226 240 -542 372 -887 372 -386 0 -718 -163
-956 -468 -82 -105 -130 -134 -216 -134 -131 0 -237 91 -237 205 0 51 38 119
128 229 253 309 615 528 991 598 167 31 313 37 466 20z m-1351 -1442 c27 -25
553 -837 570 -879 12 -33 -12 -75 -50 -89 -14 -6 -84 -10 -155 -10 -71 0 -129
-3 -129 -6 0 -15 96 -127 167 -195 93 -89 166 -140 282 -198 343 -173 769
-176 1105 -7 162 82 287 187 418 351 78 98 125 127 208 128 162 1 280 -144
223 -274 -28 -64 -169 -235 -271 -329 -607 -563 -1468 -612 -2122 -121 -192
145 -400 401 -494 608 l-18 42 -180 3 c-175 3 -180 4 -199 27 -10 13 -19 34
-19 47 0 26 536 877 572 907 28 23 62 21 92 -5z"/>
</g>
</svg>
